<mxfile host="app.diagrams.net" modified="2023-04-27T08:57:37.430Z" agent="Mozilla/5.0 (Windows NT 10.0; Win64; x64) AppleWebKit/537.36 (KHTML, like Gecko) Chrome/112.0.0.0 Safari/537.36 Edg/112.0.1722.58" version="21.2.3" etag="LKSqQq83ep1b2OoVBEg4" type="github">
  <diagram name="第 1 页" id="wk8j9zkRjfPriSqCTZ0I">
    <mxGraphModel>
      <root>
        <mxCell id="0" />
        <mxCell id="1" parent="0" />
      </root>
    </mxGraphModel>
  </diagram>
</mxfile>
